<svg id="visual" viewBox="0 0 900 600" width="900" height="600" xmlns="http://www.w3.org/2000/svg" xmlns:xlink="http://www.w3.org/1999/xlink" version="1.1"><path d="M0 282L25 277.7C50 273.3 100 264.7 150 255.7C200 246.7 250 237.3 300 242.7C350 248 400 268 450 273.3C500 278.7 550 269.3 600 257.7C650 246 700 232 750 232.3C800 232.7 850 247.3 875 254.7L900 262L900 0L875 0C850 0 800 0 750 0C700 0 650 0 600 0C550 0 500 0 450 0C400 0 350 0 300 0C250 0 200 0 150 0C100 0 50 0 25 0L0 0Z" fill="#bfb0fe"></path><path d="M0 238L25 230.3C50 222.7 100 207.3 150 201.2C200 195 250 198 300 194.8C350 191.7 400 182.3 450 184.2C500 186 550 199 600 199.3C650 199.7 700 187.3 750 180.7C800 174 850 173 875 172.5L900 172L900 0L875 0C850 0 800 0 750 0C700 0 650 0 600 0C550 0 500 0 450 0C400 0 350 0 300 0C250 0 200 0 150 0C100 0 50 0 25 0L0 0Z" fill="#d1b3fe"></path><path d="M0 169L25 170.3C50 171.7 100 174.3 150 166.7C200 159 250 141 300 138.2C350 135.3 400 147.7 450 154.7C500 161.7 550 163.3 600 158.5C650 153.7 700 142.3 750 144C800 145.7 850 160.3 875 167.7L900 175L900 0L875 0C850 0 800 0 750 0C700 0 650 0 600 0C550 0 500 0 450 0C400 0 350 0 300 0C250 0 200 0 150 0C100 0 50 0 25 0L0 0Z" fill="#e1b6fe"></path><path d="M0 94L25 94.8C50 95.7 100 97.3 150 103.8C200 110.3 250 121.7 300 124.5C350 127.3 400 121.7 450 118.5C500 115.3 550 114.7 600 116.5C650 118.3 700 122.7 750 122.7C800 122.7 850 118.3 875 116.2L900 114L900 0L875 0C850 0 800 0 750 0C700 0 650 0 600 0C550 0 500 0 450 0C400 0 350 0 300 0C250 0 200 0 150 0C100 0 50 0 25 0L0 0Z" fill="#f1bafd"></path><path d="M0 71L25 67.5C50 64 100 57 150 51.7C200 46.3 250 42.7 300 47.7C350 52.7 400 66.3 450 67.5C500 68.7 550 57.3 600 55.5C650 53.7 700 61.3 750 61.5C800 61.7 850 54.3 875 50.7L900 47L900 0L875 0C850 0 800 0 750 0C700 0 650 0 600 0C550 0 500 0 450 0C400 0 350 0 300 0C250 0 200 0 150 0C100 0 50 0 25 0L0 0Z" fill="#ffbefc"></path></svg>